<?xml version="1.0" encoding="utf-8"?>
<!-- Generator: Adobe Illustrator 24.3.0, SVG Export Plug-In . SVG Version: 6.00 Build 0)  -->
<svg version="1.1" id="Layer_1" xmlns="http://www.w3.org/2000/svg" xmlns:xlink="http://www.w3.org/1999/xlink" x="0px" y="0px"
	 viewBox="0 0 498 162" style="enable-background:new 0 0 498 162;" xml:space="preserve">
<style type="text/css">
	.st0{fill:#FFE905;}
	.st1{fill:#FFFFFF;}
</style>
<g>
	<path class="st0" d="M66.7,4l-14,59.3h0.5c8.7-9.1,21.9-14.7,36.4-14.7c24.6,0,35.7,17.6,35.7,36.1c0,33.8-25.1,72.4-78.1,72.4
		c-28,0-42-10.6-42-29.1c0-6.4,1.2-12.7,2.7-18.9L31.7,4H66.7z M42.3,111.1c-0.5,3.4-1.5,7-1.2,11.5c0.2,7.4,5.3,11.5,13.3,11.5
		c20,0,34.5-24.6,34.5-42.9c0-10-4.8-17.8-15.4-17.8c-12.5,0-24.8,11.3-28.9,29.3L42.3,111.1z"/>
	<path class="st1" d="M126.5,127.4c6.7,3,19.5,7.2,30.9,7.2c9.9,0,14.9-4.2,14.9-9.3c0-5.1-3.9-8.7-14.7-13.4
		c-13.8-5.9-25.1-14.7-25.1-27.6c0-21.5,21.5-35.7,51.9-35.7c13.7,0,24.6,2.3,30.4,5.3l-8.2,21.7c-5.1-2.1-13.3-4.7-23.6-4.7
		c-9.2,0-15.4,3.6-15.4,9.1c0,4.2,4.8,7.9,14.5,11.9c12.8,5.7,26.3,14,26.3,28.5c0,23.8-22.9,36.5-54,36.5c-15,0-29.2-3.4-36.2-8.1
		L126.5,127.4z"/>
	<path class="st1" d="M287.1,154.8c0.2-6.2,1-13.2,1.7-20.6h-0.7c-10.9,17.2-25.8,22.9-39.6,22.9c-21.2,0-35.7-14.4-35.7-36.1
		c0-35,26.3-72.4,84.4-72.4c14,0,29.2,2.3,39.1,5.1l-12.5,54.4c-2.9,13.4-5.1,33.8-4.6,46.7H287.1z M297.3,72.6
		c-2.7-0.4-6-0.8-9.4-0.8c-22.4,0-38.8,24.2-38.8,43.5c0,10.2,4.6,17.2,14.2,17.2c10.4,0,23.2-10.4,28.5-35.9L297.3,72.6z"/>
	<path class="st1" d="M327,154.8L359.8,4h34.7l-32.8,150.8H327z"/>
	<path class="st1" d="M478.6,148.9c-13.7,6.2-30.9,8.1-43.9,8.1c-33.8,0-51.1-16.8-51.1-43.7c0-31.6,26-64.6,68.7-64.6
		c23.9,0,41,11.7,41,31c0,26.5-29.2,36.1-76.5,35c0,3,1.2,7.6,3.6,10.6c4.6,5.3,12.5,8.1,22.7,8.1c12.8,0,23.6-2.5,33-6.6
		L478.6,148.9z M448,70.9c-16.2,0-25.3,11.7-27.7,21.5c27,0.2,40.5-3.2,40.5-12.5C460.8,74.5,456,70.9,448,70.9z"/>
</g>
</svg>
